<?xml version="1.0" standalone="no"?>
<!DOCTYPE svg PUBLIC "-//W3C//DTD SVG 20010904//EN"
 "http://www.w3.org/TR/2001/REC-SVG-20010904/DTD/svg10.dtd">
<svg version="1.0" xmlns="http://www.w3.org/2000/svg"
 width="30" height="30" viewBox="0 0 500.000000 500.000000"
 preserveAspectRatio="xMidYMid meet">

<g transform="translate(0.000000,500.000000) scale(0.100000,-0.100000)"
fill="#555555" stroke="none">
<path d="M1885 4794 c-33 -14 -82 -34 -110 -45 -27 -11 -110 -29 -184 -40
-207 -30 -441 -90 -441 -113 0 -6 18 -52 41 -102 l41 -91 -23 -32 c-21 -28
-22 -35 -12 -73 6 -24 9 -46 6 -50 -2 -5 -62 -8 -131 -7 -143 3 -167 -5 -235
-69 -95 -91 -104 -283 -22 -442 28 -53 114 -139 190 -189 112 -74 371 -207
567 -292 100 -43 192 -88 205 -101 13 -12 45 -67 72 -122 62 -128 78 -173 65
-186 -5 -5 -115 -31 -245 -59 -292 -61 -339 -81 -339 -149 0 -25 8 -41 32 -63
23 -23 28 -33 20 -41 -20 -20 -14 -86 9 -109 19 -19 28 -20 84 -14 78 8 120
-10 141 -60 21 -51 17 -89 -17 -168 -20 -47 -32 -91 -33 -127 -2 -45 -9 -65
-38 -107 -68 -99 -105 -236 -94 -350 6 -59 5 -65 -44 -160 -60 -117 -90 -227
-90 -333 0 -58 -4 -81 -16 -91 -29 -24 -44 -68 -44 -129 0 -33 -10 -94 -22
-135 -20 -67 -21 -81 -10 -123 23 -85 57 -122 167 -176 364 -180 804 -277
1190 -263 319 12 584 80 859 220 123 63 271 159 285 186 18 33 12 96 -15 168
-34 89 -39 117 -22 129 7 5 51 25 98 44 135 53 216 106 322 210 139 137 143
147 143 380 -1 172 -3 191 -28 275 -35 116 -115 279 -163 330 -20 22 -39 35
-41 29 -2 -6 16 -46 40 -90 51 -93 78 -160 109 -269 20 -69 23 -103 23 -255 0
-194 -4 -212 -67 -287 -91 -108 -236 -208 -380 -262 -40 -15 -82 -32 -93 -38
-16 -10 -24 -6 -52 25 l-33 37 21 -46 c29 -63 21 -88 -39 -117 -58 -27 -59
-27 -58 0 1 13 -8 27 -22 34 -36 18 -36 21 0 53 l33 31 -47 -25 c-46 -26 -47
-26 -106 -10 -70 18 -82 19 -62 4 12 -9 12 -10 -3 -5 -10 3 -24 6 -30 6 -7 0
-6 4 3 10 8 5 10 10 5 10 -6 0 -64 11 -130 24 -250 51 -368 61 -703 61 l-312
0 0 58 0 57 44 0 c58 0 69 18 14 22 -39 3 -43 6 -46 31 -3 27 -2 27 55 29 l58
2 -52 3 c-32 3 -53 9 -53 16 0 9 -2 9 -8 0 -6 -9 -38 -10 -137 -2 -147 11
-364 37 -376 45 -5 3 -9 15 -10 27 l0 22 -9 -22 c-8 -20 -12 -21 -39 -12 -27
9 -29 13 -20 35 14 38 11 42 -9 11 -10 -15 -22 -24 -27 -20 -4 5 -5 3 -2 -3 4
-6 -3 -31 -15 -55 -16 -32 -22 -67 -24 -129 l-3 -85 14 79 c15 87 42 166 55
166 5 0 20 -5 34 -11 24 -11 24 -12 10 -52 -19 -54 -10 -59 16 -7 15 29 26 40
38 36 80 -23 286 -46 407 -46 l85 0 0 -26 0 -27 -102 6 c-115 7 -95 -8 25 -19
l68 -7 -7 -61 c-4 -34 -9 -64 -11 -68 -2 -5 -19 -8 -38 -8 -100 0 -525 -89
-580 -121 -33 -20 -76 -20 -112 -1 -34 19 -36 14 -6 -14 15 -14 22 -23 15 -19
-8 4 -17 -5 -25 -24 -16 -38 -27 -30 -27 20 0 86 45 136 159 174 45 15 117 33
159 40 l77 13 -60 1 c-72 1 -156 -19 -227 -55 l-51 -26 6 99 c6 115 33 211 85
300 35 61 36 62 101 77 85 20 186 36 234 36 20 0 37 5 37 11 0 7 -23 10 -65 7
l-65 -3 0 63 c0 69 18 203 28 213 4 4 49 -4 100 -17 51 -13 139 -26 195 -30
l102 -7 1 -57 c1 -32 7 -66 13 -76 8 -15 10 -2 11 58 l0 77 33 4 32 4 -32 1
c-29 2 -33 6 -34 30 l-1 27 -10 -27 c-9 -25 -13 -27 -46 -23 -247 33 -313 47
-437 89 -11 4 -1 -3 21 -16 l41 -23 -15 -40 c-11 -27 -16 -74 -16 -147 0 -95
-2 -108 -17 -108 -9 0 -50 -11 -91 -25 -40 -14 -73 -25 -74 -25 0 0 0 57 1
128 2 146 18 200 85 296 22 31 40 61 40 67 0 10 31 24 73 34 92 21 169 34 207
36 l45 1 -40 8 c-39 8 -141 -1 -177 -15 -22 -9 -22 -10 3 87 11 44 18 82 16
84 -10 10 -47 -98 -47 -135 0 -35 -4 -43 -30 -56 -38 -20 -37 -20 -45 14 -5
22 2 49 26 103 56 128 48 222 -27 287 -42 38 -70 45 -140 38 -47 -5 -54 -3
-54 12 0 31 26 45 63 33 26 -8 28 -10 9 -11 -13 -1 -20 -5 -17 -11 8 -13 52
-13 57 -1 5 15 146 -23 169 -46 12 -11 29 -49 39 -84 l19 -64 0 46 c1 34 -6
56 -25 84 l-25 37 23 -5 c13 -3 42 -9 65 -13 39 -6 41 -8 48 -49 3 -24 12 -48
20 -55 11 -9 13 -7 9 12 -3 15 0 12 10 -9 9 -19 24 -34 38 -37 262 -56 607
-60 803 -9 33 8 65 16 70 18 26 6 58 24 45 25 -9 0 -11 3 -5 8 6 4 10 13 10
20 0 6 5 12 10 12 6 -1 9 -11 7 -23 -2 -20 -1 -20 8 -4 8 12 18 15 35 11 22
-5 24 -2 27 33 l3 38 60 11 c33 6 71 13 86 17 23 6 25 4 25 -28 0 -45 44 -92
93 -102 20 -3 109 2 199 12 181 20 271 16 366 -16 74 -25 99 -41 163 -103 29
-27 56 -47 59 -43 12 11 -66 97 -120 132 -93 61 -163 78 -321 79 -77 1 -189
-1 -248 -4 -99 -5 -110 -3 -123 14 -19 27 -18 31 14 64 20 21 59 39 145 67 65
21 125 44 133 52 44 44 -14 122 -114 153 -66 21 -192 43 -305 55 -46 5 -66 13
-94 38 -31 28 -34 35 -29 68 3 21 26 76 51 123 40 76 45 94 45 151 l0 64 43
30 c64 44 106 96 113 140 5 30 19 52 61 92 66 64 82 94 122 232 39 134 45 145
121 232 117 133 163 271 140 419 -11 72 -11 89 4 138 23 80 22 85 -19 80 -53
-6 -80 4 -135 53 -41 36 -58 45 -88 45 -20 0 -43 -4 -50 -9 -9 -5 -47 2 -101
20 -83 26 -241 59 -288 59 -13 0 -23 -6 -23 -13 0 -7 -6 -21 -13 -31 -12 -17
-16 -16 -83 7 -159 56 -311 75 -444 57 -183 -25 -210 -25 -277 4 -81 34 -148
34 -228 0z m229 -64 c43 -20 60 -22 135 -16 318 23 365 19 543 -42 l108 -36 0
-44 c0 -50 -20 -49 -21 1 l-1 32 -9 -30 c-5 -16 -7 -65 -3 -107 6 -72 5 -78
-12 -78 -17 0 -19 7 -16 60 3 39 0 60 -7 60 -7 0 -11 -23 -11 -59 0 -33 -4
-63 -10 -66 -6 -4 -10 11 -10 37 0 31 -3 39 -10 28 -5 -8 -10 -27 -10 -41 0
-33 -20 -37 -216 -46 l-141 -6 -90 42 c-67 31 -113 44 -177 53 l-86 11 0 48
c0 26 -5 51 -11 55 -9 5 -10 -9 -7 -50 4 -52 3 -56 -17 -56 -20 0 -21 4 -17
58 2 31 -1 73 -6 92 -9 30 -10 22 -11 -57 -1 -84 -3 -93 -20 -93 -14 0 -17 6
-13 25 2 13 1 33 -4 42 -6 13 -9 6 -13 -27 l-6 -45 -74 -7 c-80 -8 -98 -2
-103 35 -2 18 -11 23 -45 25 -32 2 -44 8 -49 24 -5 16 -8 17 -14 7 -5 -7 -6
-17 -4 -21 3 -4 -1 -8 -9 -8 -9 0 -19 18 -26 44 -6 25 -16 48 -22 52 -7 4 -9
0 -6 -12 16 -58 18 -94 4 -94 -9 0 -17 15 -21 39 -3 22 -11 43 -16 46 -13 8
-13 -41 0 -66 9 -16 7 -19 -10 -19 -15 0 -20 7 -20 28 -1 15 -7 38 -15 52 -13
22 -14 23 -15 5 0 -11 4 -35 9 -53 9 -30 8 -32 -14 -32 -15 0 -26 7 -30 20 -8
26 -29 26 -22 -1 3 -13 1 -19 -6 -16 -11 3 -33 85 -25 92 2 2 68 13 148 25
168 25 187 30 295 78 125 56 159 57 259 12z m1001 -61 c91 -23 175 -52 175
-61 0 -5 8 -8 18 -6 13 2 18 -5 20 -31 2 -18 -1 -38 -6 -43 -8 -8 -215 -68
-234 -68 -5 0 -8 9 -8 19 0 11 -4 23 -10 26 -5 3 -10 -2 -10 -12 0 -13 -7 -8
-22 16 -22 35 -22 35 -29 10 -11 -37 -10 -71 1 -64 6 3 10 2 10 -3 0 -5 -11
-12 -24 -14 l-24 -5 4 86 c3 59 1 80 -5 66 -5 -11 -10 -50 -10 -86 -1 -60 -3
-67 -23 -73 -44 -11 -46 -8 -32 35 8 22 17 75 21 117 3 42 12 86 20 98 12 19
18 20 71 12 31 -5 75 -13 97 -19z m278 -59 c-3 -11 -9 -20 -14 -20 -5 0 -9 9
-9 20 0 11 6 20 14 20 9 0 12 -7 9 -20z m45 -56 c-18 -6 -34 -10 -36 -9 -2 2
0 19 4 40 l6 36 30 -28 29 -28 -33 -11z m-2048 47 c0 -5 3 -23 6 -40 5 -23 3
-31 -7 -31 -14 0 -41 65 -31 75 9 8 32 6 32 -4z m-46 -27 c4 -15 4 -29 1 -32
-8 -8 -25 19 -25 41 0 26 17 20 24 -9z m-41 -4 c6 -23 7 -23 -30 -9 -26 10
-27 12 -8 19 30 13 32 12 38 -10z m2077 -9 c0 -11 -4 -23 -10 -26 -6 -4 -10 5
-10 19 0 14 5 26 10 26 6 0 10 -9 10 -19z m-1985 -86 c32 -8 94 -15 136 -15
l78 0 -6 -56 c-5 -44 -3 -55 8 -54 8 1 20 2 26 1 13 -1 48 -60 40 -68 -9 -8
-241 35 -322 61 l-81 26 -21 72 c-12 40 -25 81 -28 90 -6 14 4 12 52 -12 32
-16 85 -37 118 -45z m2185 58 c0 -37 -25 -85 -50 -98 -38 -20 -40 -19 -40 11
0 14 -4 23 -10 19 -5 -3 -10 -17 -10 -30 0 -13 -4 -26 -8 -29 -5 -3 -8 17 -8
44 0 49 0 49 45 69 48 20 81 26 81 14z m-143 -90 c-2 -32 -8 -49 -17 -51 -11
-2 -15 8 -15 40 0 40 9 57 28 58 4 0 6 -21 4 -47z m-1677 17 c0 -5 -6 -10 -14
-10 -8 0 -23 -3 -33 -6 -16 -5 -16 -4 1 10 22 18 46 21 46 6z m1627 -12 c-3
-8 -6 -5 -6 6 -1 11 2 17 5 13 3 -3 4 -12 1 -19z m-25 -33 c-5 -59 -29 -62
-26 -2 2 51 1 47 17 47 8 0 11 -14 9 -45z m-48 -14 c-4 -22 -10 -41 -15 -41
-8 0 -4 44 7 79 9 28 14 2 8 -38z m-34 -11 c0 -54 -24 -54 -27 0 -1 28 3 40
13 40 10 0 14 -12 14 -40z m-1114 19 c32 -6 99 -29 148 -51 67 -31 106 -42
156 -46 127 -9 470 31 630 74 11 3 15 -6 15 -36 1 -22 -3 -40 -7 -40 -4 0 -8
8 -8 18 -1 13 -4 12 -14 -7 -9 -16 -15 -20 -21 -12 -5 9 -10 8 -18 -3 -31 -39
-459 -93 -644 -80 l-103 6 0 34 c0 19 -4 34 -10 34 -5 0 -10 -16 -10 -35 0
-19 -4 -35 -10 -35 -5 0 -10 21 -10 48 0 26 -5 54 -11 62 -8 11 -9 0 -6 -42
l6 -58 -35 0 c-33 0 -34 2 -35 38 0 20 -5 46 -10 57 -6 14 -8 4 -6 -38 1 -40
-2 -57 -10 -57 -9 0 -13 18 -13 54 0 31 -5 58 -12 62 -8 5 -10 -9 -6 -54 5
-49 3 -60 -8 -55 -8 3 -14 16 -14 28 0 13 -5 27 -11 31 -8 5 -10 -3 -7 -25 3
-18 0 -31 -6 -31 -6 0 -86 5 -178 11 l-166 12 -31 44 c-17 24 -31 45 -31 48 0
5 145 37 210 45 87 11 221 11 286 -1z m1074 -29 c0 -52 -15 -52 -17 0 0 22 3
40 8 40 5 0 9 -18 9 -40z m-30 -10 c0 -25 -5 -40 -12 -40 -8 0 -13 15 -13 40
-1 26 3 40 12 40 8 0 13 -14 13 -40z m180 25 c0 -8 -4 -15 -10 -15 -5 0 -7 7
-4 15 4 8 8 15 10 15 2 0 4 -7 4 -15z m-220 -35 c0 -32 -4 -40 -19 -40 -15 0
-18 7 -16 38 3 44 1 42 20 42 11 0 15 -11 15 -40z m404 4 c18 -46 -5 -177 -43
-253 -11 -21 -45 -69 -77 -107 -31 -38 -68 -86 -81 -107 -13 -22 -27 -37 -29
-34 -10 10 39 88 92 147 54 61 69 84 37 59 -17 -13 -17 -13 0 14 46 74 44 77
-13 17 -34 -36 -70 -82 -81 -102 -17 -32 -45 -58 -64 -58 -3 0 -2 12 1 28 5
19 3 24 -4 17 -15 -15 -85 -157 -85 -174 0 -8 -15 -39 -34 -69 -41 -69 -42
-87 -2 -44 40 42 54 41 28 -3 -12 -19 -25 -35 -31 -35 -5 0 -6 -5 -3 -10 5 -8
11 -7 21 1 8 6 17 9 20 6 9 -9 -16 -48 -27 -42 -5 4 -9 0 -9 -8 0 -8 -7 -20
-15 -27 -12 -10 -15 -9 -16 6 0 12 -7 5 -18 -19 -19 -41 -48 -77 -35 -44 3 9
3 33 -1 53 -6 33 -7 35 -20 18 -18 -24 -18 -19 0 31 20 57 18 76 -6 35 -16
-28 -19 -30 -14 -10 3 14 -6 3 -21 -24 -15 -29 -29 -44 -33 -38 -4 7 -14 0
-25 -19 -22 -37 -30 -33 -16 7 l10 29 -18 -24 c-9 -13 -32 -52 -51 -85 l-34
-61 33 30 32 30 -16 -35 -17 -35 31 35 c20 22 28 28 24 15 l-7 -20 23 20 23
20 -12 -25 c-12 -25 -12 -25 6 -4 10 11 26 31 35 45 17 23 17 22 2 -16 -16
-40 -16 -40 4 -22 11 10 26 32 32 48 7 16 15 28 17 25 6 -5 -25 -66 -45 -88
-14 -17 -13 -18 11 -18 32 0 34 -10 7 -35 -11 -10 -20 -13 -20 -7 0 7 -10 2
-21 -9 -15 -15 -23 -18 -29 -9 -4 7 -16 -10 -30 -44 -12 -31 -30 -61 -39 -66
-28 -17 18 -11 77 9 28 10 52 17 52 16 0 -1 -13 -19 -30 -40 -24 -30 -30 -48
-30 -84 0 -36 -9 -62 -41 -116 -23 -39 -45 -79 -49 -90 l-9 -20 0 20 c0 11 5
30 12 41 6 12 18 32 26 45 14 23 13 24 -6 7 -25 -23 -34 -23 -27 0 3 9 -2 5
-11 -10 -21 -37 -26 -35 -19 5 5 30 3 29 -21 -15 -14 -27 -30 -48 -36 -48 -8
0 -8 4 -2 13 15 18 25 67 14 67 -5 0 -16 -20 -24 -45 -15 -43 -15 -45 3 -45
14 0 18 -5 14 -17 -5 -16 -3 -15 10 1 9 11 18 17 21 14 10 -10 -27 -76 -49
-87 -19 -10 -19 -11 7 -7 24 3 28 1 24 -16 -4 -16 -3 -17 9 -7 22 18 17 -5 -8
-36 l-22 -28 28 7 28 7 -33 -42 c-21 -27 -28 -41 -17 -37 13 5 16 3 11 -10 -3
-9 17 5 44 31 29 28 53 44 57 39 4 -6 0 -14 -8 -19 -7 -4 -26 -24 -42 -43
l-29 -35 30 19 c17 10 38 28 47 40 29 36 32 9 3 -28 -33 -43 -17 -48 18 -6 14
17 34 30 44 30 15 -1 14 -4 -7 -22 -17 -14 -21 -22 -12 -25 10 -4 9 -10 -5
-26 -17 -19 -17 -20 0 -14 21 8 22 -1 0 -25 -22 -25 -13 -23 27 7 19 14 43 25
54 25 18 0 17 -3 -9 -30 -35 -37 -24 -39 22 -4 43 33 59 27 27 -10 -22 -25
-35 -30 -102 -37 -42 -4 -106 -8 -142 -9 -85 -2 -51 -18 40 -19 l65 -1 -30
-29 c-29 -28 -35 -30 -180 -42 -213 -18 -580 -16 -738 5 -266 34 -597 110
-597 137 0 18 63 36 290 84 124 26 237 54 252 61 27 14 62 66 52 77 -4 3 1 16
10 29 9 12 16 34 15 48 -1 23 -2 22 -16 -10 -19 -42 -30 -23 -14 23 7 17 8 33
3 35 -5 1 -7 15 -5 30 4 21 2 24 -6 12 -9 -12 -10 -8 -5 15 11 61 12 70 13 89
1 19 2 19 21 1 20 -18 21 -18 14 1 -11 28 -35 64 -44 64 -4 0 -12 -10 -19 -22
l-11 -23 6 24 c9 35 -12 17 -37 -31 -14 -28 -24 -37 -31 -30 -7 7 -4 21 10 44
11 18 23 44 27 58 7 22 6 23 -9 11 -14 -12 -15 -10 -10 20 9 46 -8 27 -31 -35
-17 -43 -20 -46 -31 -31 -11 15 -10 23 2 47 8 16 14 37 12 46 -2 12 -9 5 -21
-20 -16 -34 -20 -36 -41 -26 -17 7 -25 21 -28 44 -4 38 -1 40 27 20 12 -8 16
-19 12 -30 -5 -11 -3 -16 5 -14 6 2 15 14 20 27 6 16 5 22 -4 19 -7 -3 -30 8
-51 23 -21 15 -59 35 -85 43 -57 18 -131 30 -117 19 15 -11 36 -63 26 -63 -4
0 -14 12 -21 28 -11 22 -14 24 -17 10 -6 -26 -20 -22 -27 7 -7 28 -81 80 -155
109 -25 10 -59 27 -75 39 -48 34 -286 162 -286 154 0 -2 24 -20 54 -40 29 -19
56 -45 59 -56 3 -12 2 -21 -1 -21 -3 0 -37 19 -76 42 -95 56 -160 124 -199
206 -29 62 -32 75 -32 169 0 97 1 103 30 144 52 74 81 84 218 81 100 -2 124 0
163 18 40 17 45 23 39 42 -19 63 -19 72 1 64 254 -99 1210 -176 1529 -122 217
36 578 126 684 170 69 29 77 30 85 10z m-248 -459 c-23 -17 -36 -19 -36 -6 0
11 18 19 40 20 11 0 10 -3 -4 -14z m-21 -55 c-10 -11 -26 -20 -35 -20 -9 0
-22 -6 -30 -12 -8 -7 -6 -2 5 11 19 22 48 39 69 40 5 1 1 -8 -9 -19z m36 -46
c-5 -16 -12 -41 -15 -56 -9 -40 -27 -34 -22 6 3 24 0 36 -10 40 -8 3 -14 1
-14 -4 0 -5 -13 -18 -30 -30 l-29 -21 13 33 c10 24 21 33 38 33 12 0 25 3 28
6 7 8 44 28 47 25 2 -2 -1 -16 -6 -32z m-61 -73 c-25 -36 -39 -42 -18 -8 8 12
18 28 22 35 5 7 10 11 13 8 3 -3 -5 -19 -17 -35z m24 -73 c-20 -66 -36 -86
-23 -28 5 24 7 45 4 48 -2 3 0 11 6 19 23 27 28 12 13 -39z m-41 -82 c7 4 -11
-17 -40 -47 -42 -43 -54 -64 -63 -106 -13 -58 -33 -85 -24 -31 3 18 7 39 10
45 5 19 -18 11 -38 -12 l-17 -20 -1 20 c0 11 14 35 31 53 34 36 44 40 35 15
-4 -12 1 -9 15 7 12 14 26 24 30 22 5 -1 17 14 26 34 10 19 19 31 21 25 2 -6
9 -8 15 -5z m-2077 -38 c3 -11 3 -22 0 -26 -8 -8 -22 8 -31 35 -5 18 -3 22 9
17 8 -3 18 -15 22 -26z m1980 -5 c-10 -10 -19 5 -10 18 6 11 8 11 12 0 2 -7 1
-15 -2 -18z m-1891 -44 c16 -29 15 -31 -2 -27 -11 2 -19 14 -21 31 -4 35 4 34
23 -4z m1835 -9 c0 -5 -7 -10 -16 -10 -8 0 -12 5 -9 10 3 6 10 10 16 10 5 0 9
-4 9 -10z m-1790 -26 c0 -8 -4 -14 -10 -14 -5 0 -10 9 -10 21 0 11 5 17 10 14
6 -3 10 -13 10 -21z m74 -30 c9 -22 -3 -32 -14 -14 -12 19 -12 30 -1 30 5 0
12 -7 15 -16z m74 -37 c5 -24 -15 -21 -21 4 -3 13 -1 19 6 16 7 -2 13 -11 15
-20z m42 -17 c0 -11 -2 -20 -4 -20 -2 0 -6 9 -9 20 -3 11 -1 20 4 20 5 0 9 -9
9 -20z m1578 -5 c-6 -14 -15 -25 -20 -25 -9 0 -4 14 15 38 15 19 18 14 5 -13z
m-49 -25 c-6 -16 -15 -30 -20 -30 -9 0 -1 28 14 48 15 19 17 14 6 -18z m-1399
-5 c0 -7 3 -20 6 -29 3 -9 1 -16 -5 -16 -6 0 -11 9 -11 19 0 11 -4 23 -10 26
-16 10 -12 25 5 19 8 -4 15 -12 15 -19z m1350 -15 c-7 -17 -14 -29 -16 -27 -2
2 1 18 7 36 6 18 14 30 17 27 2 -3 -1 -19 -8 -36z m-1303 -15 c6 -19 7 -35 3
-35 -11 0 -16 8 -24 43 -9 40 9 33 21 -8z m56 -21 c22 -44 21 -46 -6 -33 -12
6 -23 18 -23 27 -1 9 -5 25 -9 35 -14 34 21 7 38 -29z m247 -129 c0 -4 -50
-113 -57 -124 -2 -2 -6 -2 -9 2 -7 7 48 126 59 126 4 1 7 -1 7 -4z m-27 -170
c-3 -9 -8 -14 -10 -11 -3 3 -2 9 2 15 9 16 15 13 8 -4z m1142 -275 c-10 -11
-27 -20 -38 -20 -19 0 -20 1 -2 20 10 11 27 20 38 20 19 0 20 -1 2 -20z m50
-10 c-10 -11 -24 -20 -32 -20 -11 0 -11 4 -1 20 7 11 21 20 32 20 18 0 19 -1
1 -20z m45 -12 c-26 -21 -45 -24 -34 -5 16 28 26 35 41 30 14 -5 13 -9 -7 -25z
m89 6 c39 -8 39 -17 1 -44 -27 -19 -29 -19 -23 -3 9 27 -45 -25 -63 -59 -8
-16 -19 -28 -25 -28 -16 0 15 44 59 84 20 19 33 38 29 42 -4 5 -41 -28 -82
-71 -41 -44 -75 -77 -75 -73 0 21 25 57 47 67 14 7 23 14 21 17 -7 6 55 74 68
74 6 0 26 -3 43 -6z m120 -55 c2 -8 -2 -10 -14 -5 -10 3 -24 1 -33 -6 -13 -12
-14 -10 -3 10 11 21 11 23 -6 13 -10 -5 -33 -24 -52 -41 -21 -20 -41 -30 -52
-27 -11 3 -19 1 -19 -4 0 -5 -5 -9 -11 -9 -8 0 -8 4 1 14 6 8 18 12 26 9 9 -3
31 11 57 39 40 42 43 44 72 32 16 -7 31 -18 34 -25z m-265 -4 c-9 -14 -20 -25
-24 -25 -5 0 -17 -3 -27 -6 -10 -4 -2 7 17 24 43 38 56 41 34 7z m-56 -75
c-12 -16 -26 -30 -31 -30 -4 0 1 14 13 30 12 17 26 30 31 30 5 0 0 -13 -13
-30z m-123 -20 c-9 -16 -20 -30 -26 -30 -6 0 -1 14 11 30 12 17 23 30 26 30 2
0 -2 -13 -11 -30z m65 5 c-22 -23 -50 -34 -50 -18 0 15 35 43 53 43 20 0 20
-1 -3 -25z m-190 -145 c-6 -11 -13 -20 -15 -20 -3 0 -5 9 -5 20 0 11 7 20 15
20 13 0 14 -4 5 -20z m-737 -10 c-3 -11 -9 -20 -14 -20 -5 0 -9 9 -9 20 0 11
6 20 14 20 9 0 12 -7 9 -20z m33 -6 c-4 -9 -9 -15 -11 -12 -3 3 -3 13 1 22 4
9 9 15 11 12 3 -3 3 -13 -1 -22z m614 12 c0 -8 -4 -17 -9 -21 -12 -7 -24 12
-16 25 9 15 25 12 25 -4z m-733 -18 c-3 -8 -6 -5 -6 6 -1 11 2 17 5 13 3 -3 4
-12 1 -19z m157 7 c-4 -8 -8 -15 -10 -15 -2 0 -4 7 -4 15 0 8 4 15 10 15 5 0
7 -7 4 -15z m40 0 c-4 -8 -8 -15 -10 -15 -2 0 -4 7 -4 15 0 8 4 15 10 15 5 0
7 -7 4 -15z m24 -10 c-6 -14 -13 -23 -15 -21 -5 5 15 46 22 46 3 0 -1 -11 -7
-25z m42 16 c0 -6 -4 -13 -10 -16 -5 -3 -10 1 -10 9 0 9 5 16 10 16 6 0 10 -4
10 -9z m300 0 c0 -19 -12 -41 -20 -36 -10 6 -1 45 11 45 5 0 9 -4 9 -9z m40
-1 c0 -5 -5 -10 -11 -10 -5 0 -7 5 -4 10 3 6 8 10 11 10 2 0 4 -4 4 -10z
m-270 -10 c0 -5 -4 -10 -10 -10 -5 0 -10 5 -10 10 0 6 5 10 10 10 6 0 10 -4
10 -10z m110 3 c-1 -5 -7 -19 -14 -32 -15 -27 -31 -13 -21 19 6 19 35 29 35
13z m200 -24 c0 -6 -4 -7 -10 -4 -5 3 -10 11 -10 16 0 6 5 7 10 4 6 -3 10 -11
10 -16z m116 -6 c-10 -10 -19 5 -10 18 6 11 8 11 12 0 2 -7 1 -15 -2 -18z
m-466 13 c0 -3 -4 -8 -10 -11 -5 -3 -10 -1 -10 4 0 6 5 11 10 11 6 0 10 -2 10
-4z m215 -6 c3 -5 1 -10 -4 -10 -6 0 -11 5 -11 10 0 6 2 10 4 10 3 0 8 -4 11
-10z m-268 -22 c-3 -8 -6 -5 -6 6 -1 11 2 17 5 13 3 -3 4 -12 1 -19z m223 10
c0 -19 -18 -44 -25 -36 -4 3 0 15 7 27 15 24 18 26 18 9z m124 -3 c-4 -8 -8
-15 -10 -15 -2 0 -4 7 -4 15 0 8 4 15 10 15 5 0 7 -7 4 -15z m216 0 c0 -8 -7
-15 -15 -15 -9 0 -12 6 -9 15 4 8 10 15 15 15 5 0 9 -7 9 -15z m-493 -17 c-3
-8 -6 -5 -6 6 -1 11 2 17 5 13 3 -3 4 -12 1 -19z m-229 -18 c6 0 14 -5 18 -11
4 -8 -4 -9 -27 -4 -57 11 -69 16 -69 28 0 8 3 8 12 -1 17 -17 28 -15 28 6 1
16 1 16 14 0 7 -10 18 -18 24 -18z m564 10 l33 -20 -30 0 c-36 0 -60 14 -51
29 9 14 10 14 48 -9z m77 8 c4 7 12 8 21 2 11 -7 8 -10 -13 -15 -30 -8 -57 -1
-57 15 0 7 7 7 21 -1 15 -8 24 -8 28 -1z m-784 -8 c3 -5 1 -10 -4 -10 -6 0
-11 5 -11 10 0 6 2 10 4 10 3 0 8 -4 11 -10z m40 0 c3 -5 1 -10 -4 -10 -6 0
-11 5 -11 10 0 6 2 10 4 10 3 0 8 -4 11 -10z m295 -6 c0 -8 -5 -12 -10 -9 -6
4 -8 11 -5 16 9 14 15 11 15 -7z m226 -10 c-3 -8 0 -11 10 -7 7 3 14 0 14 -6
0 -12 -42 -15 -53 -5 -10 10 13 45 24 38 6 -3 8 -12 5 -20z m44 18 c0 -5 12
-13 28 -19 l27 -11 -25 -1 c-15 -1 -30 7 -38 19 -7 12 -8 20 -2 20 5 0 10 -4
10 -8z m-180 -20 c8 -2 27 -4 43 -4 48 -2 41 -18 -8 -18 -43 0 -82 19 -68 34
4 3 9 3 12 -1 3 -5 13 -9 21 -11z m-210 -2 c0 -5 -2 -10 -4 -10 -3 0 -8 5 -11
10 -3 6 -1 10 4 10 6 0 11 -4 11 -10z m150 -10 c0 -5 -2 -10 -4 -10 -3 0 -8 5
-11 10 -3 6 -1 10 4 10 6 0 11 -4 11 -10z m-57 -1267 c-7 -2 -19 -2 -25 0 -7
3 -2 5 12 5 14 0 19 -2 13 -5z m332 -3 c3 -5 25 -11 48 -11 25 -1 32 -4 17 -6
-14 -2 -61 3 -105 11 l-80 14 57 1 c31 1 60 -3 63 -9z m-142 -26 c29 -9 63
-20 77 -24 15 -5 -47 -8 -155 -7 -99 1 -202 -2 -230 -6 -34 -6 -47 -5 -40 2 6
5 39 14 75 19 55 8 59 10 25 11 -32 2 -36 4 -20 11 35 15 212 11 268 -6z m443
-6 c24 -12 43 -23 41 -24 -1 -1 -33 8 -72 22 -50 17 -62 24 -41 24 16 0 48
-10 72 -22z m-979 6 c-3 -3 -12 -4 -19 -1 -8 3 -5 6 6 6 11 1 17 -2 13 -5z
m748 -16 c43 -11 95 -43 95 -59 0 -5 -17 -1 -37 9 -45 23 -123 49 -184 62 -39
8 -37 8 21 4 36 -3 83 -10 105 -16z m-800 6 c-44 -17 -136 -41 -128 -33 15 15
84 38 113 38 14 0 21 -2 15 -5z m1158 -1 c-7 -2 -19 -2 -25 0 -7 3 -2 5 12 5
14 0 19 -2 13 -5z m50 -10 c-7 -2 -19 -2 -25 0 -7 3 -2 5 12 5 14 0 19 -2 13
-5z m-1008 -33 c-27 -12 -43 -12 -25 0 8 5 22 9 30 9 10 0 8 -3 -5 -9z m526 0
c44 -12 60 -29 53 -56 -5 -20 -7 -20 -34 8 -16 15 -34 28 -42 28 -7 0 0 -11
16 -23 33 -27 29 -32 -34 -42 -25 -5 -38 -10 -30 -13 8 -3 18 -9 21 -14 10
-15 90 4 111 26 19 20 20 20 16 2 -2 -11 -18 -24 -38 -32 -19 -7 -27 -13 -17
-13 22 -1 138 37 155 51 16 14 16 -3 -1 -26 -7 -10 -40 -24 -72 -32 -134 -31
-585 -55 -585 -31 0 4 60 7 133 8 72 1 157 4 187 9 l55 7 -75 2 c-41 1 -93 6
-115 10 l-40 9 45 2 45 3 -40 7 -40 7 55 3 55 2 -40 9 c-22 4 -84 8 -137 8
-89 1 -98 3 -98 20 0 21 32 30 114 32 28 1 65 5 81 9 30 8 29 8 -10 11 -33 2
-29 4 25 9 106 11 242 11 281 0z m235 -20 c24 -17 44 -36 44 -41 0 -24 -43
-68 -81 -83 -23 -9 -44 -14 -47 -11 -3 3 -1 5 5 5 6 0 25 13 42 29 23 22 31
37 30 63 -1 27 -2 29 -7 11 -6 -20 -9 -18 -24 17 -9 22 -14 40 -12 40 3 0 25
-14 50 -30z m44 9 c0 -6 -4 -7 -10 -4 -5 3 -10 11 -10 16 0 6 5 7 10 4 6 -3
10 -11 10 -16z m120 1 c0 -5 -7 -7 -15 -4 -8 4 -12 10 -9 15 6 11 24 2 24 -11z
m-1150 -16 c-41 -23 -39 -25 8 -7 9 3 -6 -12 -35 -35 -29 -23 -57 -52 -64 -64
-11 -22 -10 -21 17 3 16 14 43 36 61 48 l32 21 -15 -29 c-18 -36 -7 -63 34
-86 29 -16 37 -15 -123 -15 -56 0 -74 62 -30 105 20 21 21 25 7 25 -51 -1 -79
-71 -46 -118 14 -20 14 -22 0 -22 -9 0 -16 9 -16 19 0 11 -5 23 -11 26 -6 4
-8 23 -4 49 l6 41 -21 -25 -22 -24 4 34 c3 30 7 35 33 37 17 1 71 11 120 22
116 25 119 25 65 -5z m1358 -34 c-1 -17 -5 -33 -10 -36 -4 -3 -6 5 -4 18 2 15
-6 33 -23 52 l-26 28 32 -16 c26 -13 32 -22 31 -46z m-290 11 c3 -33 -20 -81
-38 -81 -6 0 -3 11 6 25 10 15 15 38 12 60 -2 22 0 34 6 32 6 -2 12 -18 14
-36z m132 0 c0 -9 -12 -28 -26 -42 l-26 -24 6 22 c4 13 8 36 8 53 1 25 4 28
20 19 10 -5 18 -18 18 -28z m-325 12 c19 -9 35 -20 35 -23 0 -7 -52 -33 -54
-28 0 2 -9 18 -18 36 -19 36 -13 39 37 15z m255 6 c12 -9 10 -10 -8 -6 -19 5
-21 3 -11 -9 10 -12 9 -18 -4 -32 -16 -15 -17 -14 -17 14 0 43 12 53 40 33z
m318 -24 c-3 -3 -9 2 -12 12 -6 14 -5 15 5 6 7 -7 10 -15 7 -18z m-1208 -1 c0
-9 -5 -12 -12 -8 -10 6 -10 4 0 -7 20 -22 14 -27 -28 -19 -65 12 -67 26 -8 40
48 11 48 11 48 -6z m1159 2 c8 -10 9 -16 1 -21 -5 -3 -10 0 -10 9 0 8 -6 17
-12 19 -8 4 -9 6 -2 6 6 1 17 -5 23 -13z m-126 -31 c-7 -21 -13 -19 -13 6 0
11 4 18 10 14 5 -3 7 -12 3 -20z m-1742 -8 c-10 -9 -11 -8 -5 6 3 10 9 15 12
12 3 -3 0 -11 -7 -18z m529 7 c-23 -26 9 -43 103 -56 63 -8 87 -16 87 -26 0
-19 -151 -7 -199 16 -43 21 -47 32 -21 60 24 25 50 31 30 6z m97 -21 c26 -12
25 -13 -22 -7 -60 7 -66 11 -41 30 15 10 22 11 27 2 4 -6 20 -17 36 -25z
m1393 17 c0 -12 -7 -20 -16 -20 -13 0 -14 3 -5 13 6 8 8 17 4 20 -3 4 -1 7 5
7 7 0 12 -9 12 -20z m190 -6 c0 -8 -5 -12 -10 -9 -6 4 -8 11 -5 16 9 14 15 11
15 -7z m-563 -30 c-15 -13 -33 -24 -40 -24 -7 0 4 14 23 29 42 35 57 30 17 -5z
m443 26 c0 -5 -4 -10 -10 -10 -5 0 -10 5 -10 10 0 6 5 10 10 10 6 0 10 -4 10
-10z m-2071 -49 c-16 -5 -33 15 -24 30 6 9 12 7 22 -7 9 -13 10 -20 2 -23z
m38 7 c-3 -7 -5 -2 -5 12 0 14 2 19 5 13 2 -7 2 -19 0 -25z m35 7 c3 -14 1
-25 -3 -25 -5 0 -9 11 -9 25 0 14 2 25 4 25 2 0 6 -11 8 -25z m63 -15 c9 -16
11 -30 6 -30 -11 0 -31 32 -31 49 0 19 9 12 25 -19z m45 16 c0 -8 3 -21 6 -30
4 -11 1 -16 -10 -16 -11 0 -16 9 -16 30 0 17 5 30 10 30 6 0 10 -6 10 -14z
m1990 0 c0 -2 -8 -10 -17 -17 -16 -13 -17 -12 -4 4 13 16 21 21 21 13z m-2239
-23 c13 -16 12 -17 -3 -4 -17 13 -22 21 -14 21 2 0 10 -8 17 -17z m329 -31
c-15 -5 -40 17 -40 36 0 12 6 10 26 -9 14 -13 20 -25 14 -27z m-346 12 c3 -8
2 -12 -4 -9 -6 3 -10 10 -10 16 0 14 7 11 14 -7z m2091 -9 c-27 -13 -54 -24
-60 -24 -5 1 13 11 40 24 28 13 55 24 60 24 6 -1 -12 -11 -40 -24z m-148 9
c-3 -3 -12 -4 -19 -1 -8 3 -5 6 6 6 11 1 17 -2 13 -5z m-38 -8 c-7 -7 -211
-45 -324 -60 -159 -22 -448 -38 -615 -34 -137 3 -145 4 -148 23 -3 20 0 21 85
12 143 -13 550 1 668 24 55 11 142 21 193 23 51 2 96 7 99 10 4 3 15 6 26 6
11 0 18 -2 16 -4z m291 -27 c-7 -11 -14 -18 -17 -15 -3 3 0 12 7 21 18 21 23
19 10 -6z m-241 7 c-5 -5 -185 -56 -196 -55 -15 1 41 22 107 40 65 17 97 23
89 15z m-1362 -28 c40 -6 102 -8 138 -6 58 5 65 4 71 -14 3 -11 4 -21 2 -22
-8 -8 -275 16 -380 34 -65 11 -126 17 -135 14 -15 -5 -16 -4 -3 5 17 13 194 7
307 -11z m676 15 c-7 -2 -19 -2 -25 0 -7 3 -2 5 12 5 14 0 19 -2 13 -5z m882
-23 c-3 -5 -11 -10 -16 -10 -6 0 -7 5 -4 10 3 6 11 10 16 10 6 0 7 -4 4 -10z
m-418 -6 c-3 -3 -12 -4 -19 -1 -8 3 -5 6 6 6 11 1 17 -2 13 -5z m-1258 -20 c8
-8 -105 -2 -124 5 -11 5 10 6 50 3 39 -2 72 -6 74 -8z m1101 -10 c-142 -34
-211 -43 -251 -35 -29 6 -21 9 56 19 50 7 126 18 170 26 128 21 139 17 25 -10z
m-1230 5 c25 -6 86 -17 135 -25 l90 -13 -90 4 c-52 2 -116 12 -150 23 -66 22
-57 28 15 11z m1395 2 c-9 -15 31 -23 82 -15 27 3 46 4 43 1 -3 -3 -55 -13
-115 -22 -61 -9 -123 -20 -140 -25 -27 -7 -25 -8 20 -10 38 -1 45 -4 30 -10
-17 -7 -16 -9 10 -10 17 -2 59 -2 95 -2 81 0 64 -9 -80 -43 -99 -23 -101 -25
-40 -19 92 8 213 38 298 73 59 25 78 29 94 20 12 -6 36 -9 56 -6 48 8 36 1
-49 -33 -41 -16 -68 -29 -60 -30 25 0 5 -10 -86 -45 -95 -37 -100 -43 -13 -20
67 18 72 18 40 0 -34 -20 -23 -18 45 5 32 11 60 19 62 17 5 -6 -200 -85 -239
-92 -21 -4 -38 -11 -38 -16 0 -14 -83 -26 -119 -16 -19 5 -51 7 -72 5 -20 -2
-35 0 -33 4 3 5 -10 8 -28 9 l-33 1 33 9 c36 11 44 22 10 15 -45 -9 -193 -15
-168 -6 17 6 -4 9 -70 11 -52 1 -77 4 -55 6 112 9 234 25 261 33 22 7 12 9
-41 5 -48 -3 -64 -2 -50 5 13 6 -19 8 -95 5 -70 -2 -105 0 -90 5 14 4 57 8 97
9 40 1 107 7 150 13 69 12 73 13 38 17 -36 3 -37 5 -15 11 16 5 -16 9 -85 10
l-110 3 94 8 c96 9 131 18 70 20 -28 1 -24 3 25 15 81 20 83 27 6 20 l-65 -5
65 11 c36 6 67 14 70 18 5 6 156 46 188 49 7 0 11 -3 7 -8z m-955 -31 c29 -7
23 -8 -35 -9 -38 0 -92 6 -120 14 l-50 14 85 -6 c47 -3 101 -9 120 -13z m1132
5 c-18 -8 -49 -16 -70 -19 -31 -5 -28 -3 18 14 64 22 100 26 52 5z m-1629 -2
c-7 -2 -21 -2 -30 0 -10 3 -4 5 12 5 17 0 24 -2 18 -5z m222 -34 l50 -2 -50
-6 -50 -6 85 -12 c47 -7 108 -10 136 -7 63 8 202 -6 164 -16 -22 -5 -23 -7 -7
-13 10 -4 46 -8 80 -8 l62 -2 -65 -8 c-135 -16 -185 -20 -172 -11 30 20 -53
32 -212 32 -89 0 -177 4 -196 9 -21 5 -27 10 -15 11 13 1 5 8 -25 20 -44 18
-44 19 -15 21 28 2 28 2 5 7 l-25 5 25 6 c13 4 58 1 100 -6 41 -6 98 -13 125
-14z m543 24 c-43 -2 -113 -2 -155 0 -43 1 -8 3 77 3 85 0 120 -2 78 -3z m220
-10 c-10 -2 -26 -2 -35 0 -10 3 -2 5 17 5 19 0 27 -2 18 -5z m954 -25 c-6 -7
-25 -22 -44 -32 -39 -23 -32 -13 14 20 38 26 45 29 30 12z m18 -33 c-35 -42
-319 -179 -464 -224 -76 -23 -86 -25 -86 -12 0 10 17 16 140 56 102 33 295
119 365 163 57 36 62 38 45 17z m-1095 -26 c-33 -4 -62 -6 -63 -4 -8 7 84 21
103 16 11 -3 -6 -8 -40 -12z m-924 -15 c33 -15 58 -29 55 -31 -4 -4 -136 44
-145 52 -14 14 39 2 90 -21z m-38 -47 c53 -23 93 -43 87 -45 -10 -4 -184 70
-210 89 -23 16 9 5 123 -44z m445 31 c-3 -7 -18 -16 -34 -19 -29 -5 11 -10
220 -25 89 -6 105 -19 31 -27 -39 -4 -39 -4 8 -5 34 -1 47 -6 45 -14 -3 -9
-30 -14 -79 -15 -50 -1 -67 1 -54 7 17 7 14 9 -15 10 -34 1 -35 1 -11 14 21
12 16 14 -62 20 -64 5 -93 3 -118 -7 l-34 -14 30 -8 c71 -17 70 -16 52 -30 -9
-6 -14 -15 -10 -18 14 -15 -30 -5 -136 29 -61 19 -111 37 -111 39 0 2 10 3 23
3 12 -1 45 -1 72 1 l50 2 -54 15 c-73 19 -75 24 -10 19 l54 -5 -60 19 -60 19
133 1 c103 1 133 -2 130 -11z m49 6 c-3 -3 -12 -4 -19 -1 -8 3 -5 6 6 6 11 1
17 -2 13 -5z m451 -19 c6 -5 -282 -17 -312 -13 -16 1 -31 9 -34 16 -3 10 30
11 170 6 95 -4 174 -8 176 -9z m-691 -121 c-3 -3 -12 -4 -19 -1 -8 3 -5 6 6 6
11 1 17 -2 13 -5z m203 -24 c63 -4 97 -8 75 -9 l-40 -3 35 -11 35 -12 -47 -3
c-29 -2 -86 7 -145 23 -99 26 -140 44 -68 30 22 -5 92 -11 155 -15z m295 10
c7 -12 -31 -12 -95 -1 -44 8 -44 9 22 10 37 0 70 -3 73 -9z m470 1 c38 -16
-52 -31 -125 -22 l-65 7 60 8 c33 4 65 9 70 11 17 6 39 4 60 -4z m202 3 c-3
-3 -12 -4 -19 -1 -8 3 -5 6 6 6 11 1 17 -2 13 -5z m-67 -19 c-19 -7 -48 -14
-65 -16 -27 -2 -25 -3 10 -8 l40 -6 -58 -23 c-38 -14 -77 -22 -115 -21 l-57 1
55 9 c88 15 82 17 -35 11 -60 -2 -108 -2 -105 1 3 3 37 10 75 17 39 6 113 19
165 30 114 22 137 23 90 5z m-480 -25 c10 -7 -22 -9 -100 -9 -74 1 -104 4 -85
9 44 11 168 11 185 0z m88 -57 c-16 -2 -40 -2 -55 0 -16 2 -3 4 27 4 30 0 43
-2 28 -4z"/>
<path d="M2191 4320 c0 -19 4 -44 9 -55 l9 -20 1 20 c3 30 -1 58 -11 75 -6 11
-8 5 -8 -20z"/>
<path d="M3380 4224 c-41 -13 -122 -35 -180 -48 -58 -14 -91 -25 -74 -25 45
-1 181 26 248 49 31 10 56 15 56 9 0 -17 22 -9 27 11 3 11 10 20 15 20 10 0 6
-9 -24 -52 -23 -33 -25 -56 -2 -37 23 19 46 69 40 85 -7 18 -15 17 -106 -12z"/>
<path d="M3477 4168 c-19 -24 -42 -56 -52 -73 l-19 -30 38 35 c33 30 85 110
72 110 -3 0 -20 -19 -39 -42z"/>
<path d="M1317 4150 c16 -28 33 -39 33 -22 0 13 -31 52 -41 52 -6 0 -2 -13 8
-30z"/>
<path d="M929 4123 c-40 -34 -69 -96 -68 -148 l1 -40 9 38 c12 51 42 107 77
145 37 39 25 42 -19 5z"/>
<path d="M1145 4141 c-14 -6 1 -10 53 -16 82 -8 103 -2 45 14 -44 12 -70 13
-98 2z"/>
<path d="M1620 4130 c98 -24 545 -62 529 -46 -6 7 -506 57 -544 55 -11 -1 -4
-5 15 -9z"/>
<path d="M1055 4104 c-11 -2 -39 -10 -63 -16 -91 -23 -122 -124 -71 -224 46
-90 251 -234 555 -391 89 -46 166 -83 173 -83 6 0 20 8 31 17 33 29 27 91 -15
149 -125 176 -156 237 -171 335 -15 98 -65 149 -185 189 -61 21 -210 35 -254
24z m240 -92 c85 -31 111 -61 129 -152 24 -114 71 -202 159 -298 43 -46 77
-89 77 -95 0 -7 3 -22 6 -34 9 -34 -9 -29 -73 21 -32 25 -130 88 -218 142
-356 216 -416 267 -417 354 0 47 21 77 61 83 65 12 217 0 276 -21z"/>
<path d="M1494 4008 c-4 -6 -2 -14 4 -16 7 -2 9 -9 5 -15 -4 -6 0 -8 10 -4 15
5 16 2 10 -21 -6 -24 -5 -26 11 -13 15 12 16 12 9 -5 -6 -17 -5 -18 12 -4 16
14 17 13 11 -8 -4 -12 -5 -22 -2 -22 11 0 46 65 46 85 -1 20 -1 20 -15 1 -14
-18 -15 -18 -15 -2 0 9 -4 15 -9 12 -5 -4 -12 0 -14 6 -4 10 -8 9 -16 -2 -9
-13 -11 -13 -11 3 0 19 -25 23 -36 5z"/>
<path d="M3220 3927 c-82 -134 -78 -126 -41 -92 30 28 99 150 90 160 -3 2 -25
-28 -49 -68z"/>
<path d="M1626 3961 c-21 -39 -21 -58 -2 -42 15 12 30 60 22 68 -2 3 -12 -9
-20 -26z"/>
<path d="M1661 3949 c-12 -19 -21 -38 -21 -43 0 -15 32 17 41 42 15 38 2 38
-20 1z"/>
<path d="M3144 3963 c-6 -10 -28 -45 -49 -78 l-38 -60 38 35 c27 25 34 29 26
13 -15 -30 -14 -38 5 -22 16 13 64 102 64 116 -1 4 -12 -5 -26 -22 -20 -23
-23 -24 -14 -7 14 28 9 49 -6 25z"/>
<path d="M1692 3931 c-13 -22 -18 -41 -12 -41 6 0 13 7 17 16 5 12 7 13 14 2
10 -16 24 -3 34 32 7 22 6 23 -8 12 -13 -11 -16 -10 -19 4 -2 11 -10 4 -26
-25z"/>
<path d="M1773 3949 c-5 -8 -16 -24 -22 -36 -16 -32 4 -30 25 2 18 27 16 57
-3 34z"/>
<path d="M1800 3919 c-13 -24 -4 -41 10 -19 10 16 13 40 5 40 -2 0 -9 -9 -15
-21z"/>
<path d="M3028 3923 c-9 -10 -23 -34 -33 -53 l-18 -35 22 19 c22 20 22 20 15
0 -7 -18 -7 -18 15 1 22 19 51 66 51 81 0 4 -10 -1 -22 -12 -19 -17 -21 -17
-15 -1 4 9 5 17 3 17 -1 0 -10 -8 -18 -17z"/>
<path d="M1872 3913 c-18 -32 -16 -51 4 -31 9 8 14 24 12 34 -4 18 -5 17 -16
-3z"/>
<path d="M2957 3890 c-14 -24 -24 -46 -22 -48 7 -8 25 10 41 39 25 50 10 57
-19 9z"/>
<path d="M1833 3905 c-9 -25 4 -29 17 -6 7 15 7 21 0 21 -6 0 -13 -7 -17 -15z"/>
<path d="M1911 3902 c-14 -26 -7 -42 10 -25 6 6 9 19 7 29 -3 17 -5 17 -17 -4z"/>
<path d="M2001 3902 c-7 -13 -11 -26 -8 -28 8 -8 29 25 25 38 -3 8 -9 4 -17
-10z"/>
<path d="M2868 3889 c-35 -47 -41 -59 -29 -59 15 0 64 67 59 81 -2 7 -15 -2
-30 -22z"/>
<path d="M2906 3883 c-14 -20 -23 -39 -20 -42 8 -8 54 47 54 65 0 22 -7 17
-34 -23z"/>
<path d="M1946 3894 c-4 -9 -4 -19 -2 -21 8 -8 26 8 26 23 0 19 -16 18 -24 -2z"/>
<path d="M2042 3898 c-6 -6 -12 -19 -12 -27 0 -13 2 -13 16 1 9 9 15 21 13 27
-3 9 -8 8 -17 -1z"/>
<path d="M2082 3893 c-18 -32 -16 -51 4 -31 9 8 14 24 12 34 -4 18 -5 17 -16
-3z"/>
<path d="M2681 3884 c-29 -37 -26 -55 4 -21 23 25 32 47 21 47 -3 0 -14 -12
-25 -26z"/>
<path d="M2762 3887 c-12 -13 -22 -30 -22 -38 1 -15 50 35 50 52 0 13 -4 11
-28 -14z"/>
<path d="M2127 3880 c-19 -28 -21 -40 -7 -40 12 0 32 38 28 52 -3 7 -12 1 -21
-12z"/>
<path d="M2646 3884 c-9 -22 3 -32 14 -14 12 19 12 30 1 30 -5 0 -12 -7 -15
-16z"/>
<path d="M2719 3883 c-9 -10 -19 -27 -23 -38 -6 -17 -3 -16 20 6 14 15 25 32
22 39 -2 8 -9 5 -19 -7z"/>
<path d="M2808 3883 c-9 -10 -21 -29 -28 -43 l-13 -25 22 20 c25 22 45 54 38
61 -2 2 -11 -4 -19 -13z"/>
<path d="M2163 3875 c-8 -22 6 -33 17 -15 13 20 12 30 0 30 -6 0 -13 -7 -17
-15z"/>
<path d="M2212 3865 c-6 -14 -8 -25 -4 -25 12 0 32 23 32 37 0 22 -16 15 -28
-12z"/>
<path d="M2276 3871 c-11 -12 -16 -24 -12 -28 9 -9 39 22 34 37 -2 7 -10 4
-22 -9z"/>
<path d="M2327 3872 c-19 -21 -22 -32 -7 -32 10 0 34 39 27 46 -2 2 -11 -4
-20 -14z"/>
<path d="M2390 3869 c-7 -11 -9 -24 -5 -27 7 -7 35 25 35 40 0 16 -19 8 -30
-13z"/>
<path d="M2446 3871 c-10 -11 -16 -26 -14 -33 3 -8 11 -2 23 15 21 33 15 45
-9 18z"/>
<path d="M2506 3871 c-11 -12 -16 -24 -12 -28 9 -9 39 22 34 37 -2 7 -10 4
-22 -9z"/>
<path d="M2547 3873 c-4 -3 -7 -13 -7 -21 0 -12 3 -12 15 -2 8 7 15 16 15 21
0 11 -14 12 -23 2z"/>
<path d="M2585 3869 c-4 -6 -5 -13 -2 -16 7 -7 27 6 27 18 0 12 -17 12 -25 -2z"/>
<path d="M1606 3691 c-4 -7 -5 -15 -2 -18 9 -9 19 4 14 18 -4 11 -6 11 -12 0z"/>
<path d="M1641 3682 c-14 -26 -7 -42 10 -25 6 6 9 19 7 29 -3 17 -5 17 -17 -4z"/>
<path d="M1686 3678 c-18 -25 -21 -53 -6 -43 13 8 13 -1 0 -26 -12 -21 -1 -25
19 -6 11 10 11 8 2 -10 -17 -33 -13 -38 10 -17 22 19 22 19 10 -3 -16 -30 -14
-38 5 -22 15 12 16 11 9 -10 -5 -17 -4 -22 5 -16 9 5 10 2 5 -14 -3 -11 -4
-21 -2 -21 8 0 55 75 62 100 7 22 6 23 -8 12 -13 -11 -15 -10 -10 10 4 21 3
20 -15 -5 l-19 -29 -8 39 c-6 36 -7 37 -22 18 -13 -19 -14 -18 -7 9 5 22 4 27
-6 21 -9 -5 -10 -2 -5 14 8 27 0 27 -19 -1z"/>
<path d="M1828 3588 c-48 -64 -69 -125 -24 -71 27 33 59 93 53 99 -2 3 -15
-10 -29 -28z"/>
<path d="M1854 3567 c-12 -17 -30 -48 -39 -67 l-18 -35 23 20 c25 22 63 91 58
106 -2 5 -13 -6 -24 -24z"/>
<path d="M1888 3542 c-34 -51 -70 -123 -65 -128 7 -7 72 96 85 134 6 17 10 32
8 32 -2 0 -15 -17 -28 -38z"/>
<path d="M1937 3552 c-17 -18 -40 -72 -34 -79 7 -6 26 21 42 60 17 41 15 45
-8 19z"/>
<path d="M2742 3543 c-21 -26 -22 -26 -17 -5 10 35 -3 26 -35 -25 -39 -61 -38
-78 1 -33 l31 35 -17 -33 c-22 -44 -13 -52 14 -13 20 28 55 101 48 101 -2 0
-13 -12 -25 -27z"/>
<path d="M2776 3533 c-28 -45 -44 -89 -27 -79 17 11 68 116 56 116 -3 0 -16
-17 -29 -37z"/>
<path d="M2827 3538 c-31 -42 -50 -78 -44 -85 7 -6 54 57 66 90 14 36 7 34
-22 -5z"/>
<path d="M1966 3541 c-9 -10 -21 -33 -26 -52 -9 -29 -8 -31 5 -19 14 14 49 90
42 90 -2 0 -11 -8 -21 -19z"/>
<path d="M2017 3538 c-8 -12 -18 -34 -22 -47 -11 -36 14 -16 32 26 17 42 11
55 -10 21z"/>
<path d="M2850 3499 c-36 -69 -34 -90 4 -32 23 36 44 93 33 93 -2 0 -19 -27
-37 -61z"/>
<path d="M2060 3546 c0 -2 -7 -21 -15 -42 l-16 -39 21 24 c18 21 28 61 15 61
-3 0 -5 -2 -5 -4z"/>
<path d="M2658 3533 c-20 -23 -51 -84 -45 -89 7 -7 36 31 52 69 17 41 15 45
-7 20z"/>
<path d="M2148 3534 c-4 -6 -12 -24 -18 -40 -11 -28 -11 -28 9 -9 20 18 21 18
21 -1 1 -19 1 -19 15 0 8 11 15 29 15 40 -1 20 -1 20 -14 3 -14 -18 -14 -18
-18 0 -2 11 -6 14 -10 7z"/>
<path d="M2425 3530 c-4 -6 -11 -25 -15 -43 l-9 -32 19 24 c11 13 20 32 20 42
0 21 -6 24 -15 9z"/>
<path d="M2526 3511 c-15 -29 -16 -33 -3 -28 12 4 15 1 11 -11 -3 -9 6 -3 20
13 28 33 37 67 12 46 -11 -9 -15 -9 -18 1 -3 7 -12 -2 -22 -21z"/>
<path d="M2591 3494 c-27 -54 -21 -71 8 -23 18 29 28 69 18 69 -2 0 -14 -21
-26 -46z"/>
<path d="M2086 3502 c-20 -40 -17 -50 8 -23 10 11 16 28 14 38 -3 14 -8 11
-22 -15z"/>
<path d="M2241 3500 c-11 -33 2 -41 19 -11 12 24 13 41 1 41 -5 0 -14 -13 -20
-30z"/>
<path d="M2281 3512 c-7 -13 -11 -28 -8 -35 2 -7 9 -2 16 11 7 13 11 28 8 35
-2 7 -9 2 -16 -11z"/>
<path d="M2334 3519 c-17 -21 -24 -49 -14 -49 5 0 14 9 20 21 14 25 9 47 -6
28z"/>
<path d="M2366 3502 c-10 -19 -15 -36 -13 -39 9 -8 39 45 35 59 -3 7 -12 -2
-22 -20z"/>
<path d="M2458 3524 c-5 -4 -8 -16 -8 -28 0 -14 3 -17 11 -9 6 6 9 19 7 28 -1
9 -6 13 -10 9z"/>
<path d="M2481 3498 l-11 -33 20 24 c21 25 26 41 11 41 -5 0 -14 -15 -20 -32z"/>
<path d="M2201 3507 c-7 -9 -11 -24 -9 -34 3 -16 5 -15 17 5 15 29 10 50 -8
29z"/>
<path d="M2867 3210 c-14 -50 -26 -115 -22 -119 11 -10 36 74 33 107 -3 34 -4
35 -11 12z"/>
<path d="M2897 3166 c-10 -38 -16 -70 -14 -72 10 -10 38 76 35 107 -3 30 -5
26 -21 -35z"/>
<path d="M2936 3175 c-29 -103 -29 -103 -13 -82 11 13 16 15 20 5 7 -19 37 56
37 92 0 17 -4 29 -9 26 -5 -4 -11 0 -14 6 -2 7 -12 -14 -21 -47z"/>
<path d="M2765 3200 c-7 -24 -8 -24 -15 -5 -8 19 -8 19 -18 -5 -9 -21 -11 -22
-12 -5 0 17 -2 17 -10 5 -5 -8 -15 -15 -22 -15 -7 0 -15 -11 -16 -24 -2 -15 0
-21 7 -17 6 4 11 2 11 -5 0 -8 4 -8 15 1 8 7 15 9 15 4 0 -5 7 0 15 10 15 20
15 20 15 0 1 -16 3 -16 15 6 14 25 14 25 9 -10 -5 -33 -5 -34 10 -16 9 11 16
36 16 55 0 25 -3 32 -9 22 -7 -11 -10 -10 -13 5 -4 16 -5 16 -13 -6z"/>
<path d="M2838 3205 c-3 -6 -13 -34 -22 -64 -13 -45 -13 -51 -1 -41 16 13 38
85 32 103 -2 6 -6 7 -9 2z"/>
<path d="M2030 3173 c0 -11 37 -53 48 -54 4 0 23 -2 42 -5 l35 -4 -35 29 c-40
33 -47 33 -30 -1 11 -23 11 -23 -7 -3 -26 30 -53 49 -53 38z"/>
<path d="M2641 3152 c-14 -26 -7 -42 10 -25 6 6 9 19 7 29 -3 17 -5 17 -17 -4z"/>
<path d="M2184 3125 c27 -21 53 -20 36 0 -7 8 -22 15 -34 15 -21 -1 -21 -1 -2
-15z"/>
<path d="M2031 2896 c-13 -33 -9 -43 8 -22 7 8 11 23 8 33 -3 14 -6 12 -16
-11z"/>
<path d="M2076 2882 c-10 -19 -15 -36 -13 -39 9 -8 39 45 35 59 -3 7 -12 -2
-22 -20z"/>
<path d="M2122 2888 c-5 -7 -13 -24 -16 -38 l-7 -25 20 24 c12 13 21 29 21 37
0 17 -5 18 -18 2z"/>
<path d="M2142 2853 c-17 -30 -16 -32 16 -30 21 2 28 8 30 27 2 23 2 24 -12 7
-14 -18 -14 -18 -18 0 -4 16 -5 16 -16 -4z"/>
<path d="M2212 2853 c-17 -32 -16 -49 3 -33 8 7 15 9 15 4 0 -15 65 -8 68 7 2
10 -7 15 -30 14 -20 0 -35 6 -39 15 -5 11 -8 10 -17 -7z"/>
<path d="M1653 2599 c52 -28 169 -56 258 -64 41 -3 101 -8 134 -11 97 -9 58 5
-61 21 -176 25 -285 45 -322 61 -49 20 -54 17 -9 -7z"/>
<path d="M2320 900 c14 -4 59 -8 100 -8 52 0 67 2 50 8 -14 4 -59 8 -100 8
-52 0 -67 -2 -50 -8z"/>
<path d="M3316 591 c-4 -5 3 -7 14 -4 23 6 26 13 6 13 -8 0 -17 -4 -20 -9z"/>
<path d="M3215 554 c-38 -14 -126 -40 -195 -59 -107 -29 -117 -33 -65 -28 81
8 194 37 268 70 109 47 104 56 -8 17z"/>
<path d="M3028 2387 c-12 -30 -10 -93 3 -80 5 5 9 30 7 54 -2 31 -5 39 -10 26z"/>
<path d="M3077 2297 c-27 -17 -99 -48 -160 -68 -119 -40 -124 -47 -14 -24 74
15 173 63 208 101 28 30 25 29 -34 -9z"/>
<path d="M3465 2306 c-92 -18 -141 -38 -70 -28 28 4 122 7 210 7 131 0 167 -4
200 -18 22 -10 35 -13 29 -7 -44 44 -247 70 -369 46z"/>
<path d="M3141 2219 c-1 -45 4 -64 24 -93 14 -20 25 -45 25 -54 0 -9 12 -37
26 -62 37 -64 81 -177 99 -253 22 -95 35 -270 21 -279 -7 -5 -5 -8 7 -8 9 0
17 -4 17 -9 0 -22 -133 -96 -156 -87 -8 3 -13 2 -9 -3 3 -5 -14 -16 -37 -25
-24 -8 -50 -17 -58 -20 -8 -4 8 -3 35 0 102 11 97 13 137 -46 20 -30 41 -68
46 -85 9 -28 10 -29 11 -5 1 32 -28 96 -62 136 l-26 31 24 11 c13 6 42 27 64
47 l39 36 30 -53 c44 -76 71 -143 92 -223 21 -83 36 -95 127 -95 158 0 296
115 398 333 37 79 52 127 39 127 -5 -1 -33 -40 -62 -88 -136 -222 -256 -319
-383 -310 l-42 3 -28 83 c-16 46 -53 130 -82 185 -52 97 -54 106 -61 199 -8
125 -44 263 -97 377 l-42 92 27 28 c69 72 228 107 372 82 132 -23 198 -86 289
-276 64 -134 82 -188 94 -283 10 -81 15 -92 34 -73 8 8 12 42 11 99 -1 103
-37 221 -110 362 -95 186 -203 250 -413 250 -145 0 -271 -47 -337 -124 -19
-22 -36 -37 -39 -35 -4 4 -23 76 -38 144 -3 11 -5 -5 -6 -36z"/>
<path d="M3190 2216 c0 -14 5 -28 10 -31 6 -4 10 7 10 24 0 17 -4 31 -10 31
-5 0 -10 -11 -10 -24z"/>
<path d="M3960 2129 c0 -3 16 -34 35 -69 34 -64 50 -59 19 5 -13 29 -54 76
-54 64z"/>
<path d="M2295 2049 c52 -10 194 -10 220 1 12 5 -33 8 -120 8 -100 0 -129 -3
-100 -9z"/>
<path d="M3128 2013 l21 -29 -67 17 c-37 10 -92 18 -122 17 l-55 0 40 -9 c238
-53 224 -47 245 -89 23 -46 25 -69 6 -76 -7 -3 -94 -18 -192 -34 l-179 -30
100 4 c136 6 339 54 308 74 -5 4 -13 25 -17 46 -8 44 -44 96 -83 122 l-26 17
21 -30z"/>
<path d="M1599 1778 c-16 -36 -24 -76 -26 -128 -2 -52 0 -69 6 -55 5 11 10 36
11 55 1 19 9 67 20 105 10 39 17 71 15 73 -1 1 -13 -21 -26 -50z"/>
<path d="M2465 1760 c11 -5 47 -9 80 -9 33 0 69 4 80 9 13 6 -15 9 -80 9 -65
0 -93 -3 -80 -9z"/>
<path d="M4125 1660 c6 -92 -10 -225 -35 -294 -13 -35 -15 -45 -5 -32 40 53
59 129 58 236 -1 58 -6 119 -12 135 -9 25 -10 17 -6 -45z"/>
<path d="M3262 1625 c0 -38 3 -79 8 -90 11 -26 11 100 0 135 -6 18 -8 5 -8
-45z"/>
<path d="M2265 1511 c11 -5 85 -11 165 -14 141 -5 143 -5 80 8 -69 15 -280 20
-245 6z"/>
<path d="M2910 1501 c-31 -6 8 -8 121 -9 91 -1 195 -4 230 -7 55 -4 60 -3 34
6 -36 13 -321 20 -385 10z"/>
<path d="M3346 1338 c49 -52 78 -93 92 -133 10 -29 10 -29 11 -5 1 43 -34 105
-81 143 -61 50 -71 47 -22 -5z"/>
<path d="M3998 1296 c-13 -30 -5 -56 19 -56 14 0 15 2 4 9 -9 6 -11 18 -6 40
8 37 -1 41 -17 7z"/>
<path d="M2557 1230 c-72 -14 -51 -22 38 -15 145 12 187 23 85 23 -47 0 -102
-4 -123 -8z"/>
<path d="M3805 1085 c-71 -35 -127 -64 -124 -64 10 -2 145 46 175 62 28 15 94
67 84 66 -3 0 -63 -29 -135 -64z"/>
<path d="M3050 1123 c14 -2 96 -20 184 -39 87 -19 160 -33 162 -31 7 7 -153
55 -220 67 -33 5 -80 9 -105 9 -26 -1 -35 -4 -21 -6z"/>
</g>
</svg>
